<?xml version="1.0" encoding="UTF-8"?>
<svg id="Layer_2" data-name="Layer 2" xmlns="http://www.w3.org/2000/svg" viewBox="0 0 556.26 76.6">
  <defs>
    <style>
      .cls-1, .cls-2, .cls-3, .cls-4 {
        stroke-width: 0px;
      }

      .cls-1, .cls-4 {
        fill: #0064b1;
      }

      .cls-2, .cls-3 {
        fill: #fff;
      }

      .cls-3, .cls-4 {
        fill-rule: evenodd;
      }
    </style>
  </defs>
  <g id="Layer_1-2" data-name="Layer 1">
    <g>
      <path class="cls-4" d="m359.3,2.12h185.17c6.49,0,11.79,5.31,11.79,11.79v50.9c0,6.48-5.3,11.79-11.79,11.79h-185.17c-6.49,0-11.79-5.31-11.79-11.79V13.91c0-6.49,5.31-11.79,11.79-11.79"/>
      <path class="cls-3" d="m410.81,6.71h132.78c3.91,0,7.11,3.21,7.11,7.12v51.06c0,3.92-3.2,7.12-7.11,7.12h-132.78V6.71Z"/>
      <path class="cls-4" d="m47.71,9.74l-2.89,8.71c-3.42-1.04-7.03-1.55-10.8-1.55-4.92,0-8.98,1.17-12.17,3.52-3.18,2.33-5.49,5.27-6.89,8.79-1.42,3.53-2.12,7.09-2.12,10.69,0,3.39.97,6,2.94,7.82,1.96,1.83,5.27,2.74,9.9,2.74,4.15,0,8.29-.7,12.41-2.09l-.83,8.79c-4.98,1.31-9.99,1.97-15.03,1.97-8.19,0-13.94-1.67-17.24-5.03-3.32-3.34-4.97-7.47-4.97-12.36,0-4.35.77-8.53,2.29-12.55,1.53-4.02,3.78-7.59,6.74-10.71,2.96-3.12,6.64-5.6,11.02-7.41,4.38-1.83,9.42-2.74,15.09-2.74,4.55,0,8.73.47,12.57,1.4m41.18,12.53c-4.47-.73-9.66-1.08-15.56-1.08-4.66,0-8.81.71-12.4,2.14-3.6,1.42-6.57,3.39-8.88,5.87-2.32,2.48-4.06,5.33-5.22,8.54-1.17,3.22-1.76,6.59-1.76,10.13,0,7.63,3.45,11.44,10.37,11.44s12.94-4.17,18.41-12.49h.18c-2.08,5.23-3.45,9.13-4.14,11.67h10.98c.66-3.2,1.24-5.95,1.72-8.28.49-2.32,1.03-4.79,1.63-7.41.59-2.62,1.24-5.49,1.96-8.63.72-3.14,1.62-7.09,2.73-11.89m-12.58,6.81l-.52,2.33c-.63,2.67-1.83,5.54-3.6,8.64-1.76,3.1-3.75,5.73-6,7.88-2.24,2.16-4.36,3.24-6.34,3.24-2.23,0-3.33-1.69-3.33-5.08,0-2.69.56-5.39,1.67-8.13,1.11-2.73,2.78-4.98,5.02-6.75,2.23-1.76,4.95-2.64,8.18-2.64,1.67,0,3.31.17,4.93.5M114.96,4.66l-12.32,53.82h-11.06l12.32-53.82h11.06Zm33.94,17.39c-2.94-.63-5.85-.93-8.73-.93-3.9,0-7.45.65-10.68,1.94-3.22,1.3-5.99,3.14-8.29,5.52-2.32,2.37-4.05,5.1-5.24,8.18-1.18,3.08-1.77,6.34-1.77,9.78,0,8.44,5.43,12.67,16.3,12.67,3.66,0,7.17-.48,10.55-1.44l.99-8.21c-2.51.94-5.27,1.4-8.26,1.4-5.18,0-7.77-2.16-7.77-6.48,0-2.42.5-4.83,1.52-7.22,1-2.39,2.51-4.35,4.53-5.88,2.02-1.54,4.48-2.31,7.39-2.31,2.66,0,4.93.37,6.83,1.12l2.64-8.14Zm22.88-11.05c-.03,1.18-.38,2.22-1.08,3.13-.69.91-1.62,1.63-2.77,2.18-1.15.54-2.37.81-3.67.81-1.85,0-3.39-.54-4.67-1.62-1.26-1.08-1.9-2.35-1.9-3.82.03-1.67.79-3.09,2.32-4.24,1.5-1.16,3.24-1.73,5.21-1.73s3.44.51,4.69,1.53c1.25,1.02,1.87,2.27,1.87,3.76m-3.89,10.83l-8.43,36.66h-11.06l8.42-36.66h11.07Zm71.76,11.38l-5.88,25.28h-11.07l5.33-23.01c.28-1.18.43-2.21.43-3.09,0-2.21-.96-3.32-2.89-3.32s-3.88,1.05-6.08,3.13c-2.2,2.09-4.19,4.72-5.96,7.89-1.77,3.17-2.98,6.18-3.61,9.04l-2.15,9.36h-11.08l5.33-23.01c.28-1.18.43-2.22.43-3.13,0-2.19-.99-3.28-2.98-3.28-1.39,0-2.89.63-4.54,1.87-1.64,1.25-3.2,2.85-4.66,4.82-1.47,1.95-2.79,4.15-3.95,6.56-1.16,2.43-2,4.72-2.53,6.88l-2.11,9.29h-11.06l4.45-19.16c.22-1.06.62-2.8,1.17-5.23.54-2.44,1.02-4.59,1.4-6.46.38-1.88.79-3.81,1.22-5.8h10.9c-.72,2.9-2.07,6.7-4.03,11.38l.22.07c1.46-2.42,3.08-4.53,4.84-6.31,1.76-1.79,3.76-3.22,6-4.3,2.26-1.08,4.7-1.62,7.34-1.62,1.85,0,3.44.27,4.78.81,1.34.54,2.38,1.34,3.1,2.4.72,1.06,1.08,2.36,1.08,3.92,0,1.11-.43,2.88-1.3,5.32h.18c2.21-3.76,4.87-6.78,7.95-9.05,3.08-2.27,6.57-3.4,10.46-3.4,2.18,0,4.01.33,5.46,1,1.46.68,2.54,1.65,3.24,2.91.71,1.28,1.06,2.77,1.06,4.47,0,1.12-.16,2.38-.47,3.77m49.44-10.93c-1.11,4.81-2.01,8.76-2.73,11.89-.73,3.13-1.37,6.01-1.97,8.63-.59,2.62-1.13,5.09-1.62,7.41-.49,2.33-1.06,5.09-1.72,8.28h-10.98c.69-2.54,2.07-6.44,4.14-11.67h-.17c-5.48,8.33-11.61,12.49-18.41,12.49s-10.37-3.81-10.37-11.44c0-3.54.59-6.9,1.75-10.13,1.17-3.21,2.91-6.06,5.22-8.54,2.32-2.48,5.28-4.45,8.88-5.87,3.6-1.43,7.74-2.14,12.4-2.14,5.9,0,11.1.36,15.57,1.08m-12.59,6.81c-1.62-.33-3.26-.5-4.93-.5-3.23,0-5.96.89-8.19,2.64-2.24,1.77-3.9,4.02-5.01,6.75-1.11,2.74-1.67,5.44-1.67,8.13,0,3.38,1.11,5.08,3.33,5.08,1.98,0,4.1-1.08,6.35-3.24,2.25-2.15,4.25-4.78,6-7.88,1.77-3.09,2.96-5.97,3.6-8.64l.52-2.33Zm66.45-4.94l-8.94-4.42-14.71,14.14-6.22-12.03h-12.37l9.99,17.57-35.62,31.2h15.35s25.5-24.21,25.5-24.21l6.09,12.09h13.01l-10.33-17.85,18.23-16.49Z"/>
      <path class="cls-1" d="m341.31,4.71c0-.65-.26-1.14-.79-1.47-.53-.33-1.3-.5-2.31-.5h-2.81v7.3h1.56v-3.05h1.14l1.45,3.05h1.75l-1.63-3.31c.52-.11.92-.34,1.2-.69.29-.35.43-.79.43-1.33m-2.02,1.04c-.27.18-.7.27-1.29.27h-1.03v-2.3h.96c.61,0,1.06.1,1.35.28.28.19.42.49.42.9s-.14.67-.41.85"/>
      <path class="cls-1" d="m344.11,4.03c-.32-.78-.78-1.47-1.38-2.08-.62-.64-1.33-1.12-2.13-1.45-.79-.33-1.64-.49-2.54-.49s-1.71.16-2.48.47c-.77.31-1.46.77-2.06,1.38-.64.63-1.12,1.35-1.46,2.15-.34.81-.51,1.64-.51,2.5s.16,1.67.48,2.46c.32.78.79,1.48,1.41,2.1.62.64,1.33,1.12,2.13,1.46.79.33,1.62.5,2.49.5s1.68-.17,2.47-.49c.79-.33,1.51-.81,2.14-1.42.62-.6,1.1-1.3,1.42-2.09.33-.78.49-1.63.49-2.52s-.15-1.7-.47-2.48m-.92,4.66c-.29.66-.68,1.24-1.21,1.74-.54.53-1.15.94-1.84,1.21-.68.28-1.4.41-2.17.41-.7,0-1.38-.15-2.05-.43-.66-.29-1.26-.7-1.79-1.23-.52-.53-.92-1.12-1.19-1.79-.28-.67-.41-1.36-.41-2.09s.14-1.43.43-2.12c.29-.68.7-1.29,1.24-1.84.52-.52,1.11-.91,1.75-1.18.65-.27,1.35-.4,2.1-.4s1.47.14,2.14.42c.67.28,1.28.69,1.82,1.23.52.53.91,1.13,1.18,1.8.27.67.4,1.39.4,2.17,0,.73-.14,1.43-.42,2.08"/>
      <path class="cls-2" d="m401.68,33.39c0,4.11-.66,8.07-1.99,11.87-1.32,3.81-3.29,7.17-5.91,10.09-2.62,2.92-5.9,5.23-9.85,6.94-3.95,1.72-8.48,2.57-13.59,2.57-1.99,0-4.11-.03-6.37-.1-2.26-.07-4.76-.15-7.5-.25l9.3-48.23c.66-.03,2.06-.08,4.2-.16,2.14-.08,4.19-.14,6.14-.17,1.95-.04,3.54-.05,4.77-.05,3.5,0,6.56.39,9.18,1.15,2.61.77,4.78,1.9,6.5,3.4,1.71,1.49,3,3.32,3.85,5.48.85,2.15,1.28,4.65,1.28,7.47m-9.86.95c0-2.26-.39-4.17-1.16-5.7-.77-1.54-2.04-2.74-3.83-3.61-1.79-.86-4.17-1.3-7.15-1.3-2.53,0-4.57.07-6.11.21l-6.28,32.62c1.37.23,2.85.35,4.44.35,3.48,0,6.53-.7,9.16-2.1,2.63-1.4,4.73-3.22,6.32-5.47,1.59-2.25,2.75-4.68,3.5-7.29.75-2.6,1.12-5.18,1.12-7.72"/>
      <g>
        <polyline class="cls-1" points="417.66 61.89 424.15 27.44 419.98 29.15 420.97 23.24 428.96 20.25 435.16 20.35 427.04 61.89"/>
        <path class="cls-1" d="m470.79,37.1c-.45,3.46-1.26,6.75-2.43,9.86-1.17,3.11-2.64,5.85-4.42,8.24-1.78,2.38-3.83,4.23-6.16,5.56-2.33,1.33-4.89,1.99-7.68,1.99-2.6,0-4.75-.41-6.48-1.23-1.73-.82-3.03-2.14-3.91-3.95-.88-1.82-1.32-4.2-1.32-7.16,0-1.72.14-3.56.42-5.53.64-4.64,1.83-8.89,3.57-12.76,1.75-3.87,4.08-6.95,7.01-9.25,2.92-2.3,6.31-3.45,10.13-3.45,2.66,0,4.86.46,6.59,1.38,1.73.92,3.01,2.3,3.83,4.13.82,1.83,1.23,4.16,1.23,6.97,0,1.58-.13,3.32-.38,5.2m-8.91.18c.23-2.04.35-3.69.35-4.95,0-2.31-.35-3.92-1.04-4.83-.69-.91-1.77-1.37-3.24-1.37-2.09,0-3.82.83-5.19,2.51-1.37,1.67-2.44,3.86-3.21,6.56-.77,2.71-1.38,5.89-1.85,9.56-.28,1.93-.42,3.62-.42,5.07s.17,2.73.5,3.62c.33.89.8,1.52,1.42,1.89.62.36,1.42.55,2.39.55,2.9,0,5.16-1.67,6.78-5.01,1.63-3.34,2.79-7.87,3.5-13.58"/>
        <path class="cls-1" d="m506.54,37.1c-.45,3.46-1.26,6.75-2.43,9.86-1.17,3.11-2.64,5.85-4.42,8.24-1.78,2.38-3.83,4.23-6.16,5.56-2.33,1.33-4.89,1.99-7.68,1.99-2.59,0-4.75-.41-6.48-1.23-1.72-.82-3.03-2.14-3.91-3.95-.89-1.82-1.33-4.2-1.33-7.16,0-1.72.14-3.56.41-5.53.64-4.64,1.83-8.89,3.58-12.76,1.74-3.87,4.08-6.95,7-9.25,2.93-2.3,6.3-3.45,10.14-3.45,2.66,0,4.86.46,6.59,1.38,1.73.92,3.01,2.3,3.83,4.13.82,1.83,1.23,4.16,1.23,6.97,0,1.58-.13,3.32-.38,5.2m-8.91.18c.23-2.04.35-3.69.35-4.95,0-2.31-.35-3.92-1.04-4.83-.69-.91-1.77-1.37-3.24-1.37-2.09,0-3.81.83-5.18,2.51-1.38,1.67-2.44,3.86-3.21,6.56-.76,2.71-1.38,5.89-1.85,9.56-.28,1.93-.42,3.62-.42,5.07s.16,2.73.49,3.62c.33.89.8,1.52,1.42,1.89.62.36,1.41.55,2.39.55,2.89,0,5.15-1.67,6.78-5.01,1.63-3.34,2.79-7.87,3.49-13.58"/>
        <path class="cls-1" d="m542.3,37.1c-.45,3.46-1.26,6.75-2.43,9.86s-2.64,5.85-4.42,8.24c-1.78,2.38-3.83,4.23-6.16,5.56-2.33,1.33-4.89,1.99-7.68,1.99-2.6,0-4.75-.41-6.48-1.23-1.72-.82-3.02-2.14-3.91-3.95-.88-1.82-1.33-4.2-1.33-7.16,0-1.72.14-3.56.42-5.53.64-4.64,1.83-8.89,3.57-12.76,1.75-3.87,4.08-6.95,7.01-9.25,2.93-2.3,6.3-3.45,10.13-3.45,2.66,0,4.86.46,6.59,1.38,1.73.92,3.01,2.3,3.83,4.13.82,1.83,1.23,4.16,1.23,6.97,0,1.58-.13,3.32-.38,5.2m-8.9.18c.23-2.04.35-3.69.35-4.95,0-2.31-.34-3.92-1.04-4.83-.69-.91-1.77-1.37-3.24-1.37-2.09,0-3.81.83-5.19,2.51-1.37,1.67-2.44,3.86-3.21,6.56-.76,2.71-1.38,5.89-1.85,9.56-.28,1.93-.42,3.62-.42,5.07s.17,2.73.5,3.62c.33.89.8,1.52,1.42,1.89.62.36,1.42.55,2.39.55,2.89,0,5.15-1.67,6.78-5.01,1.63-3.34,2.79-7.87,3.5-13.58"/>
      </g>
    </g>
  </g>
</svg>