<?xml version="1.0" encoding="UTF-8"?>
<svg id="Layer_2" data-name="Layer 2" xmlns="http://www.w3.org/2000/svg" viewBox="0 0 773.24 122.3">
  <defs>
    <style>
      .cls-1 {
        fill: #d50057;
      }

      .cls-1, .cls-2, .cls-3, .cls-4, .cls-5 {
        stroke-width: 0px;
      }

      .cls-1, .cls-2, .cls-4 {
        fill-rule: evenodd;
      }

      .cls-2, .cls-5 {
        fill: #0057a6;
      }

      .cls-3, .cls-4 {
        fill: #fff;
      }
    </style>
  </defs>
  <g id="Layer_1-2" data-name="Layer 1">
    <g>
      <path class="cls-1" d="m17.55,0h738.13c9.65,0,17.55,7.9,17.55,17.55v87.21c0,9.65-7.9,17.55-17.55,17.55H17.55c-9.65,0-17.55-7.9-17.55-17.55V17.55C0,7.9,7.9,0,17.55,0h0Z"/>
      <path class="cls-4" d="m547.34,6.84H18.51c-5.82,0-10.59,4.77-10.59,10.59v87.45c0,5.83,4.77,10.59,10.59,10.59h528.83V6.84h0Z"/>
      <path class="cls-2" d="m91.52,27.19l-4.3,12.96c-5.09-1.54-10.47-2.31-16.07-2.31-7.33,0-13.37,1.73-18.11,5.23-4.74,3.47-8.16,7.84-10.25,13.09-2.11,5.25-3.16,10.55-3.16,15.91,0,5.05,1.45,8.92,4.37,11.63,2.92,2.72,7.84,4.08,14.73,4.08,6.17,0,12.34-1.04,18.46-3.11l-1.23,13.08c-7.42,1.96-14.86,2.94-22.37,2.94-12.18,0-20.75-2.49-25.66-7.48-4.94-4.97-7.4-11.11-7.4-18.39,0-6.47,1.14-12.69,3.4-18.67,2.28-5.98,5.61-11.31,10.03-15.95,4.41-4.64,9.88-8.32,16.39-11.03,6.52-2.72,14.01-4.08,22.46-4.08,6.76,0,13,.69,18.7,2.09h0Zm61.29,18.65h0c-6.65-1.08-14.38-1.61-23.16-1.61-6.94,0-13.11,1.06-18.46,3.18-5.36,2.12-9.77,5.05-13.22,8.74-3.45,3.69-6.04,7.93-7.77,12.71-1.74,4.79-2.61,9.8-2.61,15.07,0,11.35,5.14,17.02,15.43,17.02s19.25-6.2,27.4-18.6h.26c-3.09,7.79-5.13,13.59-6.17,17.37h16.33c.99-4.75,1.84-8.85,2.57-12.33.72-3.45,1.54-7.13,2.42-11.03.88-3.89,1.84-8.18,2.92-12.84,1.08-4.66,2.42-10.55,4.06-17.7h0Zm-18.72,10.13h0l-.77,3.48c-.94,3.97-2.72,8.25-5.35,12.85-2.61,4.61-5.58,8.52-8.94,11.73-3.33,3.22-6.5,4.83-9.44,4.83-3.31,0-4.96-2.53-4.96-7.56,0-4,.83-8.03,2.48-12.1,1.64-4.06,4.12-7.41,7.46-10.04,3.31-2.62,7.38-3.93,12.18-3.93,2.49,0,4.92.26,7.34.75h0Zm57.51-36.33h0l-18.33,80.09h-16.46l18.33-80.09h16.46Zm50.51,25.87h0c-4.37-.93-8.71-1.39-13-1.39-5.79,0-11.08.97-15.89,2.89-4.79,1.94-8.91,4.66-12.34,8.21-3.45,3.53-6.04,7.59-7.79,12.18-1.76,4.59-2.63,9.44-2.63,14.56,0,12.56,8.08,18.85,24.26,18.85,5.44,0,10.67-.71,15.69-2.14l1.47-12.21c-3.73,1.39-7.84,2.08-12.3,2.08-7.7,0-11.57-3.22-11.57-9.65,0-3.6.75-7.19,2.26-10.74,1.49-3.56,3.73-6.47,6.74-8.76,3-2.28,6.67-3.44,10.99-3.44,3.95,0,7.33.55,10.16,1.66l3.93-12.11h0Zm34.05-16.44h0c-.05,1.76-.58,3.31-1.61,4.66-1.03,1.35-2.41,2.43-4.12,3.24-1.71.81-3.54,1.21-5.47,1.21-2.75,0-5.05-.81-6.94-2.42-1.89-1.61-2.83-3.49-2.83-5.69.04-2.49,1.18-4.6,3.45-6.31,2.23-1.72,4.83-2.57,7.75-2.57s5.12.77,6.98,2.28c1.87,1.52,2.79,3.39,2.79,5.6h0Zm-5.8,16.11h0l-12.53,54.55h-16.47l12.54-54.55h16.46Zm106.79,16.94h0l-8.76,37.61h-16.46l7.93-34.23c.42-1.76.64-3.29.64-4.61,0-3.29-1.42-4.93-4.3-4.93s-5.77,1.55-9.05,4.66c-3.27,3.11-6.23,7.02-8.87,11.74-2.63,4.72-4.43,9.2-5.37,13.44l-3.21,13.94h-16.49l7.93-34.23c.42-1.76.64-3.31.64-4.66,0-3.26-1.47-4.88-4.43-4.88-2.07,0-4.31.93-6.77,2.78-2.43,1.86-4.76,4.24-6.94,7.17-2.2,2.91-4.15,6.16-5.88,9.76-1.74,3.62-2.98,7.03-3.77,10.24l-3.14,13.83h-16.47l6.63-28.51c.33-1.57.92-4.17,1.73-7.79.81-3.64,1.52-6.84,2.09-9.62.57-2.8,1.18-5.67,1.82-8.63h16.23c-1.07,4.32-3.08,9.97-6,16.94l.33.11c2.18-3.6,4.59-6.75,7.2-9.4,2.62-2.67,5.6-4.79,8.94-6.4,3.36-1.61,7-2.42,10.93-2.42,2.75,0,5.12.4,7.12,1.21,2,.8,3.54,1.99,4.61,3.57,1.08,1.57,1.61,3.51,1.61,5.83,0,1.65-.64,4.28-1.93,7.92h.26c3.3-5.6,7.25-10.09,11.84-13.46,4.58-3.38,9.77-5.07,15.56-5.07,3.25,0,5.97.5,8.12,1.5,2.18,1.01,3.78,2.45,4.83,4.34,1.06,1.9,1.58,4.11,1.58,6.65,0,1.67-.24,3.55-.71,5.62h0Zm73.56-16.28h0c-1.64,7.15-2.98,13.04-4.06,17.7-1.08,4.66-2.05,8.94-2.92,12.84-.88,3.89-1.69,7.57-2.42,11.03-.73,3.47-1.58,7.57-2.57,12.33h-16.33c1.03-3.78,3.08-9.58,6.17-17.37h-.26c-8.15,12.4-17.28,18.6-27.4,18.6s-15.43-5.67-15.43-17.02c0-5.27.88-10.28,2.61-15.07,1.73-4.77,4.33-9.02,7.78-12.71,3.44-3.7,7.86-6.62,13.22-8.74,5.35-2.12,11.52-3.18,18.46-3.18,8.78,0,16.51.53,23.16,1.61h0Zm-18.72,10.13h0c-2.41-.49-4.85-.75-7.33-.75-4.81,0-8.87,1.32-12.18,3.93-3.34,2.63-5.81,5.98-7.46,10.04-1.65,4.08-2.48,8.1-2.48,12.1,0,5.03,1.65,7.56,4.96,7.56,2.95,0,6.11-1.61,9.44-4.83,3.36-3.2,6.32-7.12,8.94-11.73,2.63-4.61,4.41-8.88,5.35-12.85l.77-3.48h0Zm98.9-7.35h0l-13.3-6.58-21.89,21.05-9.26-17.91h-18.4l14.87,26.15-50.76,44.15h22.85s35.7-33.74,35.7-33.74l9.07,17.99h19.36l-15.36-26.57,27.13-24.54h0Z"/>
      <path class="cls-5" d="m529.86,22.86c0-.97-.39-1.7-1.17-2.2-.78-.5-1.92-.75-3.43-.75h-4.18v10.86h2.33v-4.54h1.69l2.16,4.54h2.6l-2.42-4.92c.78-.16,1.38-.51,1.79-1.03.42-.52.63-1.18.63-1.97h0Zm-3,1.54h0c-.4.26-1.04.4-1.92.4h-1.54v-3.42h1.43c.91,0,1.58.14,2,.43.42.28.63.73.63,1.33s-.2.99-.6,1.26h0Z"/>
      <path class="cls-5" d="m534.03,21.84c-.48-1.16-1.16-2.19-2.06-3.09-.92-.95-1.98-1.67-3.16-2.16-1.18-.49-2.44-.73-3.78-.73s-2.55.23-3.69.69c-1.14.46-2.17,1.15-3.07,2.06-.95.94-1.67,2.01-2.17,3.21-.51,1.19-.76,2.43-.76,3.72s.24,2.49.72,3.65c.48,1.16,1.17,2.2,2.09,3.13.93.94,1.98,1.67,3.17,2.17,1.18.5,2.41.75,3.7.75s2.5-.25,3.68-.73c1.18-.49,2.24-1.2,3.18-2.11.92-.91,1.63-1.94,2.11-3.11.49-1.17.73-2.42.73-3.76s-.24-2.53-.7-3.69h0Zm-1.37,6.93h0c-.42.98-1.01,1.85-1.79,2.59-.81.79-1.72,1.39-2.74,1.8-1.01.41-2.08.61-3.21.61-1.05,0-2.07-.22-3.06-.64-.99-.43-1.88-1.04-2.66-1.83-.77-.78-1.37-1.67-1.78-2.66-.41-.99-.62-2.03-.62-3.12s.22-2.13.65-3.14c.43-1.01,1.04-1.92,1.84-2.74.78-.77,1.65-1.36,2.61-1.75.96-.4,2.01-.6,3.14-.6s2.18.21,3.17.63c1,.42,1.9,1.03,2.71,1.83.77.79,1.36,1.68,1.75,2.68.4,1,.59,2.08.59,3.23,0,1.09-.21,2.12-.62,3.1h0Z"/>
      <path class="cls-3" d="m566.26,100.36h13.42l9.6-51.06h16.77l2.24-11.74h-46.68l-2.33,11.74h16.58l-9.6,51.06h0Zm59.07-46.59c-16.21,0-27.21,12.95-27.21,28.79,0,11.27,7.73,18.82,19.29,18.82,15.84,0,27.21-12.21,27.21-28.88,0-10.34-7.08-18.73-19.29-18.73h0Zm-1.77,10.16c5.4,0,7.17,4.47,7.17,8.67,0,7.83-4.1,18.54-11.46,18.54-4.66,0-7.27-3.54-7.27-8.85-.09-7.08,3.82-18.36,11.55-18.36h0Zm36.99-17.7l-1.68,8.57h-5.87l-1.86,10.16h5.78l-3.54,18.08c-.65,3.54-.93,5.96-.93,8.48,0,5.68,3.82,9.88,11.83,9.88,2.89,0,6.24-.37,7.92-1.02l1.58-10.53c-1.21.19-2.52.19-3.73.19-2.89,0-3.82-1.58-3.82-3.82,0-1.58.37-4.01.75-5.78l3.07-15.47h9.69l1.96-10.16h-9.69l2.33-12.39-13.79,3.82h0Zm62.43,54.13c-.19-5.68.65-14.63,1.77-20.5l4.84-23.85c-3.82-1.21-9.69-2.24-15.09-2.24-22.45,0-32.61,16.4-32.61,31.77,0,9.5,5.59,15.84,13.79,15.84,5.31,0,11.09-2.52,15.28-10.06h.28c-.28,3.26-.56,6.34-.65,9.04h12.39Zm-10.62-25.53c-2.05,11.18-6.99,15.75-10.99,15.75-3.73,0-5.5-3.07-5.5-7.55,0-8.48,6.34-19.1,15-19.1,1.3,0,2.61.19,3.63.37l-2.14,10.53h0Zm33.45,25.53l12.67-66.15h-13.42l-12.67,66.15h13.42Z"/>
    </g>
  </g>
</svg>