<?xml version="1.0" encoding="UTF-8"?>
<svg id="Layer_2" data-name="Layer 2" xmlns="http://www.w3.org/2000/svg" viewBox="0 0 554.8 452.75">
  <defs>
    <style>
      .cls-1, .cls-2 {
        fill: #231f20;
      }

      .cls-1, .cls-2, .cls-3 {
        stroke-width: 0px;
      }

      .cls-2, .cls-3 {
        fill-rule: evenodd;
      }

      .cls-3 {
        fill: #ed1c24;
      }
    </style>
  </defs>
  <g id="Layer_1-2" data-name="Layer 1">
    <g>
      <path class="cls-3" d="m277.77,22.69c62.7,0,116.16,91.6,31.19,174.93h67.26l13.89-31.38c-11.88,6.57-22.07,9.33-36.07,11.45C434.46,76.55,348.53,0,277.77,0s-156.79,76.55-76.38,177.69c-14-2.12-24.82-4.88-36.7-11.45l14.53,31.38h67.26c-84.97-83.33-31.51-174.93,31.3-174.93"/>
      <path class="cls-2" d="m480.71,272.54h12.58c12.74,0,21.18-.76,25.35-2.28,4.15-1.51,7.44-3.87,9.79-7.13,2.35-3.26,3.51-6.65,3.51-10.21,0-4.21-1.68-7.36-5.1-9.44-2.08-1.27-6.62-1.88-13.6-1.88h-26.07l-6.46,30.93Zm-12.58,62.86h-23.1l23.49-112.14h49.82c8.57,0,15.26.89,20.01,2.64,4.78,1.77,8.65,4.98,11.57,9.68,2.93,4.68,4.39,10.37,4.39,17.05,0,9.53-2.85,17.41-8.57,23.6-5.72,6.19-14.37,10.03-25.94,11.52,2.95,2.64,5.75,6.13,8.33,10.47,5.17,8.77,10.89,21.17,17.24,37.18h-24.82c-1.99-6.32-5.88-16.19-11.7-29.61-3.16-7.23-6.53-12.11-10.11-14.59-2.19-1.49-6.01-2.22-11.47-2.22h-9.41l-9.74,46.42Zm-128.12,0l23.43-112.14h83.19l-3.89,18.75h-60.09l-5.36,25.46h58.08l-3.89,18.75h-58.1l-7.03,30.44h65.29l-3.97,18.75h-87.65Zm-48.15,0h-23.04l9.12-43.68-30.93-68.46h24.59l13.93,31.67c3.32,7.6,5.54,13.08,6.66,16.45,1.88-3.31,4.07-6.84,6.58-10.54l10.63-14.86,15.86-22.71h26.78l-51.44,70.6-8.73,41.54Zm-160.96,0l23.44-112.14h83.19l-3.9,18.75h-60.09l-5.36,25.46h58.08l-3.89,18.75h-58.11l-7.03,30.44h65.29l-3.97,18.75h-87.65Zm-66.05,0h-21.89l-3.93-90.9.22-7.08-.87,7.07-17.31,90.91H.23l23.43-112.14h32.89l3.43,78.15-.45,3.28.67-3.22,38.07-78.21h33.31l-23.51,112.14h-21.06l21.63-90.93,1.98-6.99-2.48,6.99-43.31,90.93Z"/>
      <rect class="cls-1" x="1.51" y="360.29" width="553.06" height="5.11"/>
      <path class="cls-3" d="m500.26,430.99l12.48-.65c.16,3.97.85,6.65,2.03,8.03,1.91,2.27,5.46,3.39,10.6,3.39,4.29,0,7.39-.77,9.3-2.3,1.91-1.54,2.88-3.4,2.88-5.56,0-1.88-.79-3.48-2.36-4.79-1.1-.95-4.12-2.5-9.06-4.64-4.94-2.15-8.54-3.93-10.81-5.37-2.27-1.44-4.06-3.29-5.37-5.57-1.31-2.3-1.96-4.96-1.96-8.03,0-5.36,1.94-9.8,5.83-13.34,3.88-3.53,9.51-5.29,16.86-5.29s13.26,1.75,17.35,5.25c4.09,3.51,6.35,8.17,6.76,13.99l-12.57.56c-.32-3.04-1.42-5.38-3.31-6.99-1.88-1.62-4.66-2.43-8.33-2.43s-6.21.64-7.76,1.91c-1.56,1.27-2.33,2.88-2.33,4.82,0,1.82.71,3.34,2.14,4.52,1.41,1.22,4.55,2.88,9.42,5,7.34,3.16,12,5.71,14,7.68,2.98,2.9,4.48,6.62,4.48,11.16,0,5.62-2.22,10.42-6.67,14.39-4.45,3.99-10.63,5.97-18.58,5.97-5.47,0-10.22-.92-14.23-2.76-4.02-1.84-6.85-4.39-8.5-7.66-1.65-3.28-2.42-7.03-2.3-11.29m-20.81-2.3l13.22,2c-2.58,7.14-6.45,12.61-11.6,16.39-5.16,3.78-11.2,5.66-18.12,5.66-7.79,0-13.88-2.34-18.27-7.03-4.39-4.7-6.58-11.5-6.58-20.41,0-7.25,1.47-13.86,4.42-19.88,2.93-6,7.01-10.6,12.22-13.79,5.22-3.19,10.9-4.77,17.04-4.77,6.89,0,12.47,1.84,16.73,5.53,4.26,3.69,6.76,8.73,7.52,15.09l-12.56,1.21c-.7-3.71-2.03-6.39-4.02-8.05-1.99-1.66-4.63-2.49-7.93-2.49-3.62,0-7,1.1-10.14,3.29-3.15,2.21-5.65,5.65-7.54,10.32-1.88,4.67-2.83,9.34-2.83,14.01,0,5.1,1.23,9.03,3.68,11.81,2.45,2.77,5.5,4.17,9.15,4.17,3.38,0,6.5-1.1,9.32-3.31,2.83-2.19,4.94-5.45,6.32-9.77Zm-72.14,22.93l13.33-63.66h13.08l-13.29,63.66h-13.13Zm-26.79,0h-13.13l11.12-53.02h-18.67l2.21-10.64h50.19l-2.21,10.64h-18.44l-11.08,53.02Zm-80.58-25.23c0,4.38,1.33,8.04,4,10.99,2.67,2.95,6.17,4.43,10.52,4.43,3.53,0,6.93-1.17,10.19-3.5,3.26-2.33,5.95-5.85,8.08-10.6,2.12-4.73,3.19-9.34,3.19-13.83,0-5.01-1.35-8.94-4.03-11.78-2.7-2.86-6.13-4.28-10.31-4.28-6.39,0-11.6,2.98-15.62,8.95-4,5.96-6.02,12.5-6.02,19.62Zm-12.95.25c0-3.75.58-7.72,1.71-11.89,1.47-5.59,3.72-10.43,6.75-14.55,3.03-4.1,6.85-7.35,11.45-9.74,4.61-2.4,9.85-3.59,15.74-3.59,7.88,0,14.24,2.45,19.09,7.34,4.86,4.89,7.28,11.38,7.28,19.45,0,6.73-1.57,13.22-4.73,19.51-3.16,6.28-7.45,11.11-12.86,14.5-5.43,3.39-11.55,5.08-18.39,5.08-5.93,0-10.92-1.35-14.95-4.03-4.02-2.7-6.87-6.03-8.56-10.02-1.68-3.97-2.52-7.99-2.52-12.05Zm-30.12,24.98l13.33-63.66h13.08l-13.29,63.66h-13.12Zm-50.3-9.63h13.57c5.7,0,9.51-.37,11.45-1.1,1.94-.73,3.5-1.94,4.67-3.61,1.18-1.69,1.75-3.45,1.75-5.32,0-2.28-.85-4.15-2.52-5.62-1.68-1.48-4.48-2.21-8.39-2.21h-16.8l-3.73,17.86Zm5.91-27.78h10.73c4.82,0,8.29-.34,10.39-1.02,2.12-.68,3.71-1.8,4.76-3.36,1.06-1.56,1.59-3.21,1.59-4.98s-.5-3.18-1.5-4.29c-.99-1.11-2.4-1.89-4.25-2.24-1.01-.2-3.49-.27-7.4-.27h-10.92l-3.41,16.16Zm-20.09,37.41l13.35-63.66h21.76c4.73,0,8.02.15,9.91.43,3.13.44,5.78,1.3,7.96,2.61,2.17,1.3,3.81,3.04,4.95,5.22,1.13,2.17,1.69,4.57,1.69,7.2,0,3.53-.99,6.6-2.95,9.19-1.97,2.58-5.01,4.55-9.14,5.88,3.28.89,5.83,2.49,7.67,4.79,1.84,2.31,2.76,4.91,2.76,7.8,0,3.82-1.08,7.46-3.25,10.88-2.18,3.44-5.18,5.9-9,7.41-3.83,1.5-9.05,2.26-15.68,2.26h-30.03Zm-24.24-23.98l-3.76-26.07.31-4.24-1.23,4.24-15.65,26.07h20.33Zm1.1,9.91h-25.26l-7.64,14.07h-13.47l36.01-63.66h14.56l10.34,63.66h-12.43l-2.12-14.07Zm-62.47,14.07h-13.13l11.12-53.02h-18.68l2.21-10.64h50.19l-2.21,10.64h-18.43l-11.08,53.02Zm-52.29,0l13.33-63.66h13.08l-13.29,63.66h-13.13Zm-29.07,0h-14L0,387.96h13.08l8.07,48.16,26.39-48.16h12.99l-35.11,63.66Z"/>
    </g>
  </g>
</svg>